<mxfile host="app.diagrams.net" modified="2021-08-09T01:04:37.900Z" agent="5.0 (Windows NT 10.0; Win64; x64) AppleWebKit/537.36 (KHTML, like Gecko) Chrome/92.0.4515.131 Safari/537.36" etag="x6sNkjwNA2xqcZZIrNVi" version="14.9.5" type="github">
  <diagram id="P4zqopr9uCK-OYBeBiVr" name="Page-1">
    <mxGraphModel dx="1422" dy="804" grid="1" gridSize="10" guides="1" tooltips="1" connect="1" arrows="1" fold="1" page="1" pageScale="1" pageWidth="827" pageHeight="1169" math="0" shadow="0">
      <root>
        <mxCell id="0" />
        <mxCell id="1" parent="0" />
        <mxCell id="r4rO_1cq1b3sR2HL8Qc_-7" style="edgeStyle=orthogonalEdgeStyle;rounded=0;orthogonalLoop=1;jettySize=auto;html=1;entryX=0.5;entryY=0;entryDx=0;entryDy=0;fontFamily=Verdana;startArrow=classic;startFill=1;sketch=0;exitX=0.5;exitY=1;exitDx=0;exitDy=0;" edge="1" parent="1" source="r4rO_1cq1b3sR2HL8Qc_-15" target="r4rO_1cq1b3sR2HL8Qc_-2">
          <mxGeometry relative="1" as="geometry" />
        </mxCell>
        <mxCell id="r4rO_1cq1b3sR2HL8Qc_-1" value="" style="image;html=1;image=img/lib/clip_art/computers/Database_128x128.png" vertex="1" parent="1">
          <mxGeometry x="520" y="60" width="80" height="80" as="geometry" />
        </mxCell>
        <mxCell id="r4rO_1cq1b3sR2HL8Qc_-8" style="edgeStyle=orthogonalEdgeStyle;rounded=0;sketch=0;orthogonalLoop=1;jettySize=auto;html=1;exitX=0;exitY=0.5;exitDx=0;exitDy=0;entryX=1;entryY=0.5;entryDx=0;entryDy=0;fontFamily=Verdana;startArrow=classic;startFill=1;" edge="1" parent="1" source="r4rO_1cq1b3sR2HL8Qc_-2" target="r4rO_1cq1b3sR2HL8Qc_-3">
          <mxGeometry relative="1" as="geometry" />
        </mxCell>
        <mxCell id="r4rO_1cq1b3sR2HL8Qc_-2" value="" style="image;html=1;image=img/lib/clip_art/computers/Database_128x128.png" vertex="1" parent="1">
          <mxGeometry x="520" y="310" width="80" height="80" as="geometry" />
        </mxCell>
        <mxCell id="r4rO_1cq1b3sR2HL8Qc_-9" style="edgeStyle=orthogonalEdgeStyle;rounded=0;sketch=0;orthogonalLoop=1;jettySize=auto;html=1;exitX=0.5;exitY=1;exitDx=0;exitDy=0;entryX=0.5;entryY=0;entryDx=0;entryDy=0;fontFamily=Verdana;startArrow=classic;startFill=1;" edge="1" parent="1" source="r4rO_1cq1b3sR2HL8Qc_-17" target="r4rO_1cq1b3sR2HL8Qc_-4">
          <mxGeometry relative="1" as="geometry" />
        </mxCell>
        <mxCell id="r4rO_1cq1b3sR2HL8Qc_-3" value="" style="image;html=1;image=img/lib/clip_art/computers/Database_128x128.png" vertex="1" parent="1">
          <mxGeometry x="210" y="310" width="80" height="80" as="geometry" />
        </mxCell>
        <mxCell id="r4rO_1cq1b3sR2HL8Qc_-4" value="" style="image;html=1;image=img/lib/clip_art/computers/Database_128x128.png" vertex="1" parent="1">
          <mxGeometry x="210" y="530" width="80" height="80" as="geometry" />
        </mxCell>
        <mxCell id="r4rO_1cq1b3sR2HL8Qc_-12" value="product_id&lt;br&gt;" style="text;html=1;strokeColor=none;align=center;verticalAlign=middle;whiteSpace=wrap;rounded=0;fontFamily=Verdana;shadow=0;fillColor=#FFFFFF;" vertex="1" parent="1">
          <mxGeometry x="525" y="230" width="70" height="20" as="geometry" />
        </mxCell>
        <mxCell id="r4rO_1cq1b3sR2HL8Qc_-13" value="order_id" style="text;html=1;strokeColor=none;align=center;verticalAlign=middle;whiteSpace=wrap;rounded=0;fontFamily=Verdana;shadow=0;fillColor=#FFFFFF;" vertex="1" parent="1">
          <mxGeometry x="370" y="340" width="70" height="20" as="geometry" />
        </mxCell>
        <mxCell id="r4rO_1cq1b3sR2HL8Qc_-14" value="customer_unique_id" style="text;html=1;strokeColor=none;align=center;verticalAlign=middle;whiteSpace=wrap;rounded=0;fontFamily=Verdana;shadow=0;fillColor=#FFFFFF;" vertex="1" parent="1">
          <mxGeometry x="210" y="460" width="70" height="20" as="geometry" />
        </mxCell>
        <mxCell id="r4rO_1cq1b3sR2HL8Qc_-15" value="olist_products_dataset" style="text;html=1;strokeColor=none;align=center;verticalAlign=middle;whiteSpace=wrap;rounded=0;fontFamily=Verdana;shadow=0;fillColor=#FFFFFF;" vertex="1" parent="1">
          <mxGeometry x="525" y="140" width="70" height="20" as="geometry" />
        </mxCell>
        <mxCell id="r4rO_1cq1b3sR2HL8Qc_-16" value="olist_order_items_dataset" style="text;html=1;strokeColor=none;align=center;verticalAlign=middle;whiteSpace=wrap;rounded=0;fontFamily=Verdana;shadow=0;fillColor=#FFFFFF;" vertex="1" parent="1">
          <mxGeometry x="520" y="390" width="70" height="20" as="geometry" />
        </mxCell>
        <mxCell id="r4rO_1cq1b3sR2HL8Qc_-17" value="olist_orders_dataset" style="text;html=1;strokeColor=none;align=center;verticalAlign=middle;whiteSpace=wrap;rounded=0;fontFamily=Verdana;shadow=0;fillColor=#FFFFFF;" vertex="1" parent="1">
          <mxGeometry x="215" y="390" width="70" height="20" as="geometry" />
        </mxCell>
        <mxCell id="r4rO_1cq1b3sR2HL8Qc_-20" value="A. Como ficaria a modelagem acima pensando em uma aplicação para o BI?" style="text;html=1;strokeColor=none;fillColor=none;align=center;verticalAlign=middle;whiteSpace=wrap;rounded=0;shadow=0;fontFamily=Verdana;" vertex="1" parent="1">
          <mxGeometry x="40" y="10" width="480" height="20" as="geometry" />
        </mxCell>
        <mxCell id="r4rO_1cq1b3sR2HL8Qc_-22" value="B. Qual a granularidade e FK’s da tabela fato?" style="text;html=1;strokeColor=none;fillColor=none;align=center;verticalAlign=middle;whiteSpace=wrap;rounded=0;shadow=0;fontFamily=Verdana;" vertex="1" parent="1">
          <mxGeometry x="40" y="630" width="290" height="20" as="geometry" />
        </mxCell>
        <mxCell id="r4rO_1cq1b3sR2HL8Qc_-23" value="Muitos para um." style="text;whiteSpace=wrap;html=1;fontFamily=Verdana;" vertex="1" parent="1">
          <mxGeometry x="80" y="650" width="290" height="30" as="geometry" />
        </mxCell>
      </root>
    </mxGraphModel>
  </diagram>
</mxfile>
